<?xml version="1.0"?>
<svg version="1.1" xmlns="http://www.w3.org/2000/svg" width="170" height="51" style=""><path fill="#0f8ed8" d="M15,18.8759765625q0-0.232421875,0.32373046875-0.35693359375t0.42333984375-0.12451171875l0.6142578125-0.099609375q0.6142578125-0.099609375,1.2451171875-0.17431640625t1.228515625-0.14111328125q2.1083984375-0.265625,4.216796875-0.52294921875t4.25-0.25732421875q0.166015625,0,0.45654296875,0.0166015625t0.5810546875,0.09130859375t0.498046875,0.20751953125t0.20751953125,0.365234375q0,0.166015625-0.15771484375,0.29052734375t-0.37353515625,0.19091796875t-0.43994140625,0.0830078125t-0.35693359375,0.0166015625l-0.29052734375,0t-0.29052734375-0.06640625q-0.8798828125,0-1.73486328125,0.0830078125t-1.73486328125,0.1494140625q0.232421875,0.265625,0.2490234375,0.7470703125t0.033203125,0.830078125q0,5.876953125,0.0830078125,11.6875t0.1494140625,11.7373046875l0,0.033203125q-0.5478515625,0.4814453125-0.93798828125,0.6142578125t-0.78857421875,0.1328125q-0.3818359375,0-0.77197265625-0.14111328125t-0.93798828125-0.60595703125l0-0.033203125l0.1328125-13.0322265625q0-1.294921875-0.033203125-2.85546875t-0.033203125-3.16259765625t0.0498046875-3.09619140625t0.265625-2.6064453125q-0.9794921875,0.099609375-2.0751953125,0.298828125q-0.9462890625,0.166015625-1.8095703125,0.166015625l-0.298828125,0q-0.06640625,0-0.39013671875,0.0166015625t-0.6640625-0.0166015625t-0.6142578125-0.1328125t-0.27392578125-0.33203125z M31.413466796875,31.6591796875q0-0.6806640625,0.24072265625-1.1455078125t1.02099609375-0.46484375q0.298828125,0,0.7470703125,0.09130859375t0.5146484375,0.45654296875q0.166015625,0.9794921875,0.1826171875,2.125t0.1162109375,2.158203125q0.3818359375-0.7470703125,0.9794921875-1.6103515625t1.361328125-1.59375t1.66015625-1.2119140625t1.826171875-0.4814453125q0.06640625,0,0.2490234375,0.0498046875t0.34033203125,0.14111328125t0.19091796875,0.20751953125t-0.1826171875,0.2158203125q-0.06640625,0.19921875-0.2822265625,0.24072265625t-0.3818359375,0.04150390625q-0.099609375,0-0.3154296875-0.0830078125q-1.228515625,0.6474609375-2.091796875,1.759765625t-1.4111328125,2.46533203125t-0.796875,2.85546875t-0.2490234375,2.93017578125q0,0.7138671875-0.32373046875,0.86328125t-1.03759765625,0.1494140625q-0.3818359375,0-0.80517578125-0.0830078125t-0.58935546875-0.53125q-0.298828125-0.9462890625-0.48974609375-2.1748046875t-0.29052734375-2.53173828125t-0.14111328125-2.56494140625t-0.04150390625-2.2744140625z M43.21169921875,36.3076171875q0-1.12890625,0.30712890625-2.1748046875t0.92138671875-1.86767578125t1.53564453125-1.3115234375t2.13330078125-0.48974609375q0.7470703125,0,1.65185546875,0.22412109375t1.70166015625,0.6640625t1.328125,1.12060546875t0.53125,1.560546875q0,0.4150390625-0.14111328125,0.630859375t-0.57275390625,0.2158203125l-0.1826171875-0.033203125q0.4814453125,1.294921875,0.830078125,2.65625t0.6806640625,2.72265625q0.1328125,0.265625,0.19921875,0.47314453125t0.06640625,0.40673828125q0,0.265625-0.1494140625,0.43994140625t-0.39013671875,0.25732421875t-0.498046875,0.1162109375t-0.45654296875,0.033203125q-0.7138671875,0-1.07080078125-0.2490234375t-0.5146484375-0.6806640625t-0.19091796875-0.97119140625t-0.1328125-1.08740234375q-0.19921875,0.6474609375-0.52294921875,1.26171875t-0.763671875,1.10400390625t-1.03759765625,0.7802734375t-1.3447265625,0.29052734375q-1.095703125,0-1.8427734375-0.630859375t-1.20361328125-1.55224609375t-0.6640625-1.96728515625t-0.20751953125-1.9423828125z M45.56912109375,36.0751953125q0,0.6142578125,0.0830078125,1.294921875t0.27392578125,1.3447265625t0.48974609375,1.25341796875t0.7470703125,1.03759765625q0.8134765625-0.8798828125,1.20361328125-2.1416015625t0.697265625-2.43212890625t0.697265625-2.0087890625t1.20361328125-0.83837890625q0.5146484375,0,0.86328125,0.1826171875q-0.166015625-0.4150390625-0.5478515625-0.80517578125t-0.85498046875-0.7138671875t-0.9794921875-0.53125t-0.95458984375-0.20751953125q-0.1328125,0-0.30712890625,0.04150390625t-0.27392578125,0.00830078125q-0.6806640625,0.19921875-1.12060546875,0.68896484375t-0.7138671875,1.15380859375t-0.39013671875,1.361328125t-0.1162109375,1.3115234375z M56.919111328125,30.1318359375q0-0.1328125,0.15771484375-0.24072265625t0.35693359375-0.15771484375t0.40673828125-0.06640625t0.30712890625-0.0166015625q0.7470703125,0,1.2783203125,0.6640625t0.92138671875,1.70166015625t0.6640625,2.291015625t0.52294921875,2.49853515625t0.48974609375,2.28271484375t0.53955078125,1.60205078125q0.5146484375-1.0126953125,0.93798828125-2.4404296875t0.7802734375-2.955078125t0.630859375-3.01318359375t0.43994140625-2.59814453125q0.06640625-0.298828125,0.4150390625-0.37353515625t0.5810546875-0.07470703125q0.3818359375,0,0.6640625,0.10791015625t0.2822265625,0.47314453125q0,0.6142578125-0.1494140625,1.66845703125t-0.40673828125,2.36572265625t-0.59765625,2.689453125t-0.73046875,2.61474609375t-0.8134765625,2.19140625t-0.83837890625,1.35302734375q-0.19921875,0.232421875-0.62255859375,0.32373046875t-0.70556640625,0.09130859375q-0.9794921875,0-1.626953125-0.5146484375l0,0.033203125q-1.0126953125-0.9462890625-1.494140625-2.3076171875t-0.697265625-2.8388671875t-0.39013671875-2.9384765625t-0.58935546875-2.65625q-0.06640625-0.1328125-0.166015625-0.39013671875t-0.232421875-0.5146484375t-0.22412109375-0.48974609375t-0.09130859375-0.365234375z M70.012265625,36.98828125q0-1.162109375,0.25732421875-2.7392578125t0.87158203125-2.98828125t1.61865234375-2.39892578125t2.53173828125-0.98779296875q1.427734375,0,2.1416015625,0.82177734375t0.7138671875,2.21630859375q0,0.9130859375-0.34033203125,2.00048828125t-0.97119140625,2.05859375t-1.494140625,1.61865234375t-1.92578125,0.6474609375l-0.431640625-0.033203125q0,0.4482421875,0.1328125,1.20361328125t0.39013671875,1.50244140625t0.6640625,1.3115234375t0.98779296875,0.564453125q0.8466796875,0,1.626953125-0.6806640625t1.4775390625-1.5107421875t1.294921875-1.5107421875t1.095703125-0.6806640625q0.265625,0,0.5478515625,0.0830078125t0.3154296875,0.46484375q0,0.232421875-0.12451171875,0.3818359375t-0.22412109375,0.33203125q-0.5146484375,0.8798828125-1.12060546875,1.6767578125t-1.36962890625,1.4443359375t-1.66845703125,1.02099609375t-2.00048828125,0.37353515625q-1.427734375,0-2.3740234375-0.50634765625t-1.52734375-1.361328125t-0.83837890625-1.9755859375t-0.25732421875-2.34912109375z M72.9839453125,35.7265625l0.46484375,0.4150390625q0.33203125,0.298828125,0.6640625,0.1328125t0.59765625-0.60595703125t0.48974609375-1.08740234375t0.3984375-1.328125t0.25732421875-1.328125t0.0830078125-1.0791015625l0-0.564453125t-0.0498046875-0.59765625t-0.17431640625-0.47314453125t-0.39013671875-0.24072265625q-0.0830078125-0.0166015625-0.1494140625-0.0166015625q-0.564453125,0-0.962890625,0.7138671875q-0.431640625,0.796875-0.697265625,1.93408203125t-0.3818359375,2.33251953125t-0.1494140625,1.79296875z M83.885693359375,42.201171875q0-0.4814453125,0.04150390625-1.0126953125t0.07470703125-0.99609375l0.099609375-2.490234375q0.166015625-2.98828125,0.40673828125-5.876953125t0.40673828125-5.84375q0.099609375-1.626953125,0.1494140625-3.19580078125t0.1494140625-3.19580078125q-0.06640625-0.1328125-0.06640625-0.1826171875q0-0.232421875,0.17431640625-0.365234375t0.40673828125-0.22412109375t0.48974609375-0.12451171875t0.39013671875-0.033203125l0.3818359375,0q0.5146484375,0.06640625,0.7470703125,0.32373046875t0.298828125,0.6142578125t0.033203125,0.763671875t-0.033203125,0.75537109375q0,2.4072265625-0.1162109375,4.90576171875t-0.265625,5.013671875t-0.27392578125,5.0302734375t-0.12451171875,4.97216796875l0,1.162109375q0,0.7802734375-0.43994140625,1.029296875t-1.22021484375,0.2490234375q-0.6806640625,0-1.1953125-0.298828125t-0.5146484375-0.9794921875z M97.969462890625,37.2041015625q0-3.6025390625,0.32373046875-7.21337890625t1.35302734375-7.11376953125q0.298828125-1.0458984375,0.7802734375-2.06689453125t1.1787109375-1.81787109375t1.66015625-1.294921875t2.291015625-0.498046875l0.3486328125,0.033203125q1.427734375,0.19921875,2.1083984375,1.15380859375t0.6806640625,2.38232421875q0,0.3818359375-0.09130859375,0.95458984375t-0.29052734375,1.10400390625t-0.53955078125,0.90478515625t-0.85498046875,0.37353515625q-0.232421875-0.033203125-0.42333984375-0.0830078125t-0.35693359375-0.2158203125q0.265625-0.5810546875,0.47314453125-1.2119140625t0.20751953125-1.4443359375q0-0.298828125-0.0498046875-0.763671875t-0.19091796875-0.92138671875t-0.37353515625-0.796875t-0.6474609375-0.34033203125q-1.0458984375,0-1.759765625,1.17041015625t-1.1953125,2.98828125t-0.7138671875,4.017578125t-0.35693359375,4.25t-0.14111328125,3.7021484375t-0.0166015625,2.33251953125q0,0.796875-0.0166015625,1.759765625l0,0.2158203125q0.0166015625,0.8466796875,0.1162109375,1.6103515625q0.1328125,0.86328125,0.5146484375,1.494140625t1.1953125,0.73046875q0.2490234375,0.033203125,0.4814453125,0.033203125q0.962890625,0,1.7431640625-0.5478515625q0.962890625-0.6806640625,1.7099609375-1.76806640625t1.328125-2.390625t1.07080078125-2.46533203125t0.95458984375-1.92578125t0.962890625-0.763671875q0.166015625,0,0.498046875,0.06640625t0.33203125,0.3154296875q0,0.06640625-0.033203125,0.1826171875t-0.0830078125,0.1826171875q-0.4482421875,1.759765625-1.13720703125,3.65234375t-1.759765625,3.44482421875t-2.623046875,2.53173828125t-3.72705078125,0.9794921875q-1.560546875,0-2.53173828125-0.58935546875t-1.494140625-1.5771484375t-0.7138671875-2.23291015625t-0.19091796875-2.5234375z M115.32921875,36.623046875q0-0.9462890625,0.24072265625-1.95068359375t0.763671875-1.8095703125t1.31982421875-1.3115234375t1.92578125-0.50634765625q0.8466796875,0,1.78466796875,0.29052734375t1.71826171875,0.830078125t1.27001953125,1.31982421875t0.48974609375,1.7431640625q0,1.162109375-0.42333984375,2.2080078125t-1.18701171875,1.86767578125t-1.78466796875,1.294921875t-2.21630859375,0.47314453125q-0.9794921875,0-1.7099609375-0.35693359375t-1.22021484375-0.95458984375t-0.73046875-1.4111328125t-0.24072265625-1.7265625z M117.7696484375,36.58984375q0,0.298828125,0.09130859375,0.8798828125t0.27392578125,1.13720703125t0.47314453125,0.962890625t0.70556640625,0.37353515625q0.8798828125-0.099609375,1.45263671875-0.57275390625t0.9296875-1.15380859375t0.498046875-1.4775390625t0.14111328125-1.5107421875q0-0.9130859375-0.35693359375-1.52734375t-1.17041015625-0.99609375q0,0.033203125,0.033203125,0.033203125t0.033203125-0.033203125l-0.4150390625-0.099609375q-0.166015625-0.06640625-0.40673828125-0.1494140625t-0.47314453125-0.365234375q-0.6474609375,0.232421875-1.00439453125,0.59765625t-0.53955078125,0.88818359375t-0.22412109375,1.25341796875t-0.04150390625,1.759765625z M127.90772460937,31.6591796875q0-0.6806640625,0.24072265625-1.1455078125t1.02099609375-0.46484375q0.298828125,0,0.7470703125,0.09130859375t0.5146484375,0.45654296875q0.166015625,0.9794921875,0.1826171875,2.125t0.1162109375,2.158203125q0.3818359375-0.7470703125,0.9794921875-1.6103515625t1.361328125-1.59375t1.66015625-1.2119140625t1.826171875-0.4814453125q0.06640625,0,0.2490234375,0.0498046875t0.34033203125,0.14111328125t0.19091796875,0.20751953125t-0.1826171875,0.2158203125q-0.06640625,0.19921875-0.2822265625,0.24072265625t-0.3818359375,0.04150390625q-0.099609375,0-0.3154296875-0.0830078125q-1.228515625,0.6474609375-2.091796875,1.759765625t-1.4111328125,2.46533203125t-0.796875,2.85546875t-0.2490234375,2.93017578125q0,0.7138671875-0.32373046875,0.86328125t-1.03759765625,0.1494140625q-0.3818359375,0-0.80517578125-0.0830078125t-0.58935546875-0.53125q-0.298828125-0.9462890625-0.48974609375-2.1748046875t-0.29052734375-2.53173828125t-0.14111328125-2.56494140625t-0.04150390625-2.2744140625z M139.70595703125,30.2978515625q0-0.7802734375,0.30712890625-1.15380859375t1.12060546875-0.37353515625q0.4814453125,0,0.90478515625,0.19921875t0.42333984375,0.8466796875q0.06640625,0.9462890625,0.06640625,1.98388671875t0.1826171875,1.96728515625q0.4150390625-0.6806640625,0.93798828125-1.361328125t1.15380859375-1.2119140625t1.3779296875-0.85498046875t1.626953125-0.32373046875q1.1953125,0,2.025390625,0.498046875t1.36962890625,1.294921875t0.7802734375,1.80126953125t0.24072265625,2.01708984375q0,1.560546875-0.47314453125,2.54833984375t-1.25341796875,1.55224609375t-1.76806640625,0.763671875t-1.98388671875,0.19921875q-0.8798828125,0-1.6435546875-0.34033203125t-1.0625-1.28662109375q0-0.265625,0.39013671875-0.33203125t0.55615234375-0.06640625q0.5478515625,0,0.8134765625,0.298828125q0.19921875,0.232421875,0.43994140625,0.47314453125t0.50634765625,0.24072265625q0.5146484375,0,1.0791015625-0.29052734375t1.03759765625-0.763671875t0.796875-1.12060546875t0.32373046875-1.328125q0-0.5810546875-0.099609375-1.4443359375t-0.34033203125-1.66015625t-0.6640625-1.3779296875t-1.07080078125-0.5810546875q-0.9794921875,0-1.76806640625,0.896484375t-1.3115234375,2.158203125t-0.8134765625,2.623046875t-0.29052734375,2.2744140625t0.1162109375,2.3076171875t0.24072265625,2.89697265625t0.24072265625,2.89697265625t0.1162109375,2.3076171875q0,0.232421875-0.19091796875,0.37353515625t-0.45654296875,0.22412109375t-0.53955078125,0.099609375t-0.40673828125,0.0166015625q-0.4482421875,0-0.93798828125-0.099609375t-0.67236328125-0.6142578125q-0.232421875-0.8134765625-0.431640625-2.31591796875t-0.35693359375-3.3203125t-0.27392578125-3.818359375t-0.19921875-3.85986328125t-0.12451171875-3.4033203125t-0.04150390625-2.45703125z M155.97000976562,41.5537109375q0-0.4150390625,0.0498046875-0.83837890625t0.0498046875-0.83837890625l0-0.265625q0-0.5146484375,0.42333984375-0.6474609375t0.87158203125-0.1328125q0.5146484375,0,0.98779296875,0.2158203125t0.47314453125,0.830078125q0.099609375,0.298828125,0.099609375,0.7138671875l0,0.7802734375q0,0.5810546875-0.40673828125,0.80517578125t-1.08740234375,0.22412109375q-0.4814453125,0-0.97119140625-0.17431640625t-0.48974609375-0.67236328125z"/><path fill="#" d=""/></svg>
